<?xml version="1.0" encoding="utf-8"?>
<!-- Generator: Adobe Illustrator 16.0.0, SVG Export Plug-In . SVG Version: 6.00 Build 0)  -->
<!DOCTYPE svg PUBLIC "-//W3C//DTD SVG 1.1//EN" "http://www.w3.org/Graphics/SVG/1.1/DTD/svg11.dtd">
<svg version="1.1" id="Layer_1" xmlns="http://www.w3.org/2000/svg" xmlns:xlink="http://www.w3.org/1999/xlink" x="0px" y="0px"
	 width="300px" height="300px" viewBox="0 0 300 300" style="enable-background:new 0 0 300 300;" xml:space="preserve">

<g class="st1">
	<rect x="22.5" y="20.5" class="st0" width="259" height="259"/>
	<line class="st0" x1="22" y1="264.5" x2="281" y2="264.5"/>
	<line class="st0" x1="22" y1="249.5" x2="281" y2="249.5"/>
	<line class="st0" x1="22" y1="233.5" x2="281" y2="233.5"/>
	<line class="st0" x1="22" y1="218.5" x2="281" y2="218.5"/>
	<line class="st0" x1="22" y1="203.5" x2="281" y2="203.5"/>
	<line class="st0" x1="22" y1="188.5" x2="281" y2="188.5"/>
	<line class="st0" x1="22" y1="173.5" x2="281" y2="173.5"/>
	<line class="st0" x1="22" y1="157.5" x2="281" y2="157.5"/>
	<line class="st0" x1="22" y1="142.5" x2="281" y2="142.5"/>
	<line class="st0" x1="22" y1="127.5" x2="281" y2="127.5"/>
	<line class="st0" x1="22" y1="112.5" x2="281" y2="112.5"/>
	<line class="st0" x1="22" y1="96.5" x2="281" y2="96.5"/>
	<line class="st0" x1="22" y1="81.5" x2="281" y2="81.5"/>
	<line class="st0" x1="22" y1="66.5" x2="281" y2="66.5"/>
	<line class="st0" x1="22" y1="51.5" x2="281" y2="51.5"/>
	<line class="st0" x1="22" y1="35.5" x2="281" y2="35.5"/>
	<line class="st0" x1="262.5" y1="21" x2="262.5" y2="280"/>
	<line class="st0" x1="244.5" y1="21" x2="244.5" y2="280"/>
	<line class="st0" x1="225.5" y1="21" x2="225.5" y2="280"/>
	<line class="st0" x1="207.5" y1="21" x2="207.5" y2="280"/>
	<line class="st0" x1="188.5" y1="21" x2="188.5" y2="280"/>
	<line class="st0" x1="170.5" y1="21" x2="170.5" y2="280"/>
	<line class="st0" x1="151.5" y1="21" x2="151.5" y2="280"/>
	<line class="st0" x1="133.5" y1="21" x2="133.5" y2="280"/>
	<line class="st0" x1="114.5" y1="21" x2="114.5" y2="280"/>
	<line class="st0" x1="96.5" y1="21" x2="96.5" y2="280"/>
	<line class="st0" x1="77.5" y1="21" x2="77.5" y2="280"/>
	<line class="st0" x1="59.5" y1="21" x2="59.5" y2="280"/>
	<line class="st0" x1="40.5" y1="21" x2="40.5" y2="280"/>
</g>
<g>
	<path class="st2" d="M253.5,265h-204c-5.238,0-9.5-4.262-9.5-9.5v-211c0-5.238,4.262-9.5,9.5-9.5h204c5.238,0,9.5,4.262,9.5,9.5
		v211C263,260.738,258.738,265,253.5,265z M49.5,36c-4.687,0-8.5,3.813-8.5,8.5v211c0,4.687,3.813,8.5,8.5,8.5h204
		c4.687,0,8.5-3.813,8.5-8.5v-211c0-4.687-3.813-8.5-8.5-8.5H49.5z"/>
</g>
<g>
	<rect x="40" y="51" class="st2" width="222" height="1"/>
</g>
<g>
	<path class="st2" d="M216.895,48.415c-2.622,0-4.756-2.133-4.756-4.755s2.134-4.755,4.756-4.755s4.755,2.133,4.755,4.755
		S219.517,48.415,216.895,48.415z M216.895,39.904c-2.071,0-3.756,1.685-3.756,3.755s1.685,3.755,3.756,3.755
		c2.07,0,3.755-1.685,3.755-3.755S218.965,39.904,216.895,39.904z"/>
</g>
<g>
	<path class="st2" d="M234.895,48.415c-2.622,0-4.756-2.133-4.756-4.755s2.134-4.755,4.756-4.755s4.755,2.133,4.755,4.755
		S237.517,48.415,234.895,48.415z M234.895,39.904c-2.071,0-3.756,1.685-3.756,3.755s1.685,3.755,3.756,3.755
		c2.07,0,3.755-1.685,3.755-3.755S236.965,39.904,234.895,39.904z"/>
</g>
<g>
	<path class="st2" d="M252.895,48.415c-2.622,0-4.756-2.133-4.756-4.755s2.134-4.755,4.756-4.755s4.755,2.133,4.755,4.755
		S255.517,48.415,252.895,48.415z M252.895,39.904c-2.071,0-3.756,1.685-3.756,3.755s1.685,3.755,3.756,3.755
		c2.07,0,3.755-1.685,3.755-3.755S254.965,39.904,252.895,39.904z"/>
</g>
<g>
	<path class="st2" d="M189,158H59V66h130V158z M60,157h128V67H60V157z"/>
</g>
<g>
	<path class="st2" d="M189,189H59v-16h130V189z M60,188h128v-14H60V188z"/>
</g>
<g>
	<path class="st2" d="M134,219H59v-16h75V219z M60,218h73v-14H60V218z"/>
</g>
<g>
	<path class="st2" d="M245,128h-38V66h38V128z M208,127h36V67h-36V127z"/>
</g>
<g>
	<path class="st2" d="M245,158h-38v-16h38V158z M208,157h36v-14h-36V157z"/>
</g>
<g>
	<path class="st2" d="M245,235h-38v-62h38V235z M208,234h36v-60h-36V234z"/>
</g>
<g>
	<path class="st2" d="M189,219h-38v-16h38V219z M152,218h36v-14h-36V218z"/>
</g>
<g>
	<path class="st2" d="M161.191,96.383c-4.241,0-7.691-3.45-7.691-7.691S156.95,81,161.191,81s7.691,3.45,7.691,7.691
		S165.433,96.383,161.191,96.383z M161.191,82c-3.689,0-6.691,3.002-6.691,6.691s3.002,6.691,6.691,6.691s6.691-3.002,6.691-6.691
		S164.881,82,161.191,82z"/>
</g>
<g>
	<path class="st2" d="M151.52,143c-0.005,0-0.012,0-0.02,0H75.489c-0.181,0-0.348-0.098-0.436-0.255s-0.085-0.351,0.009-0.505
		l37.234-61c0.09-0.147,0.25-0.238,0.422-0.239c0.001,0,0.003,0,0.004,0c0.171,0,0.33,0.087,0.422,0.232l38.713,60.9
		c0.1,0.091,0.161,0.222,0.161,0.368C152.02,142.776,151.796,143,151.52,143z M76.38,142h74.209l-37.857-59.554L76.38,142z"/>
</g>
<g>
	<path class="st2" d="M170.5,143H151c-0.276,0-0.5-0.224-0.5-0.5s0.224-0.5,0.5-0.5h18.579l-18.611-28.631l-9.81,12.931
		c-0.167,0.219-0.48,0.262-0.701,0.096c-0.22-0.167-0.263-0.48-0.096-0.701l10.24-13.497c0.099-0.129,0.228-0.207,0.417-0.197
		c0.162,0.006,0.312,0.09,0.4,0.227l19.5,30c0.101,0.154,0.108,0.35,0.021,0.511S170.684,143,170.5,143z"/>
</g>
</svg>
