<?xml version="1.0" encoding="utf-8"?>
<!-- Generator: Adobe Illustrator 16.0.0, SVG Export Plug-In . SVG Version: 6.00 Build 0)  -->
<!DOCTYPE svg PUBLIC "-//W3C//DTD SVG 1.1//EN" "http://www.w3.org/Graphics/SVG/1.1/DTD/svg11.dtd">
<svg version="1.1" id="Layer_1" xmlns="http://www.w3.org/2000/svg" xmlns:xlink="http://www.w3.org/1999/xlink" x="0px" y="0px"
	 width="150px" height="150px" viewBox="0 0 150 150" enable-background="new 0 0 150 150" xml:space="preserve">
<rect fill="#F3F22A" width="150" height="150"/>
<rect x="87" y="41" fill="#589FC7" width="8" height="3"/>
<rect x="79" y="44" fill="#589FC7" width="8" height="3"/>
<polygon fill="#A5473D" points="102.5,62.511 101.5,62.511 101.5,24.511 43.5,24.511 43.5,90.512 48.5,90.512 48.5,94.512 
	53.5,94.512 53.5,97.512 86.5,97.512 86.5,94.512 94.5,94.512 94.5,90.512 98.5,90.512 98.5,79.512 102.5,79.512 "/>
<rect x="62" y="94" fill="#A5473D" width="17" height="20"/>
<polygon fill="#232323" points="110,126 110,120 105,120 105,115 97,115 97,113 49,113 49,116 39,116 39,123.711 39,131.5 39,140 
	46,140 46,135 49,135 49,150 97,150 97,136 105,136 105,140 113,140 113,126 "/>
<rect x="55" y="61" fill="#843731" width="3" height="12"/>
<polygon fill="#353535" points="76,12 72,12 72,10 62,10 59,10 55,10 55,9 51,9 51,8 40,8 40,29 44,29 51,29 55,29 55,27 59,27 
	59,22 62,22 62,20 76,20 "/>
<rect x="37" y="116" fill="#2D2D2D" width="5" height="24"/>
<rect x="48" y="134" fill="#2D2D2D" width="8" height="16"/>
<rect x="103" y="128" fill="#2D2D2D" width="4" height="12"/>
<rect x="108" y="140" fill="#843731" width="4" height="10"/>
<polygon fill="#2D2D2D" points="74,52 74,51 67,51 67,52 67,53 67,54 79,54 79,52 "/>
<polygon fill="#2D2D2D" points="53,52 53,51 46,51 46,52 46,53 46,54 56,54 56,52 "/>
<rect x="105" y="140" fill="#A5473D" width="7" height="10"/>
<rect x="39" y="140" fill="#A5473D" width="7" height="10"/>
<rect x="42" y="140" fill="#843731" width="4" height="10"/>
<g>
	<rect x="55.5" y="81.555" fill="#843731" width="16" height="2.293"/>
	<rect x="54" y="80" fill="#843731" width="20" height="2"/>
	<rect x="57" y="82" fill="#843731" width="11" height="3"/>
</g>
<polygon fill="#843731" points="95,64 95,72 92,72 92,58 86,58 86,79 83,79 83,93 74,93 74,97 62,97 62,103 74,103 74,113 80,113 
	80,98 86,98 93,98 93,93 99,93 99,91 99,91 99,79 103,79 103,64 "/>
<rect x="103" y="64" fill="#2D2D2D" width="4" height="10"/>
<rect x="41" y="48" fill="#2D2D2D" width="3" height="15"/>
<rect x="101" y="20" fill="#2D2D2D" width="3" height="3"/>
<rect x="57" y="72" fill="#843731" width="8" height="2"/>
<rect x="59" y="72" fill="#843731" width="6" height="3"/>
<polygon fill="#2D2D2D" points="105,37 105,30 104,30 104,24 102,24 102,22 95,22 95,19 89,19 89,17 80,17 80,13 67,13 67,12 64,12 
	64,9 58,9 58,6 42,6 42,12 39,12 39,19 38,19 38,39 39,39 39,43.88 39,52 44,52 44,44 45,44 45,39 49,39 49,35 55,35 55,37 61,37 
	61,39 68,39 68,41 77,41 77,42 82,42 82,44 86,44 86,58 91,58 91,72 95,72 95,64 109,64 109,50.145 109,48.057 109,37 "/>
<rect x="70.25" y="57.5" fill="#2D2D2D" width="4.5" height="5"/>
<rect x="48.25" y="57.5" fill="#2D2D2D" width="4.5" height="5"/>
</svg>
