<?xml version="1.0" encoding="utf-8"?>
<!-- Generator: Adobe Illustrator 16.0.0, SVG Export Plug-In . SVG Version: 6.00 Build 0)  -->
<!DOCTYPE svg PUBLIC "-//W3C//DTD SVG 1.1//EN" "http://www.w3.org/Graphics/SVG/1.1/DTD/svg11.dtd">
<svg version="1.1" id="Layer_1" xmlns="http://www.w3.org/2000/svg" xmlns:xlink="http://www.w3.org/1999/xlink" x="0px" y="0px"
	 width="196.557px" height="269.214px" viewBox="0 -89.786 196.557 269.214" enable-background="new 0 -89.786 196.557 269.214"
	 xml:space="preserve">
<polygon fill="#738DF9" points="161.933,45.423 139.09,84.232 139.09,37.04 161.933,37.04 "/>
<polygon fill="#5171F4" points="129.495,94.456 106.652,131.006 106.652,36.954 129.495,36.954 "/>
<rect x="71.928" y="36.954" fill="#3A5DEF" width="22.844" height="101.361"/>
<rect x="36.429" y="36.954" fill="#2A48F3" width="22.844" height="101.361"/>
<g>
	<path fill="#FFFFFF" d="M123.19,179.428H0V0h196.557v66.331L123.19,179.428z M20,159.428h92.325l64.231-99.016V20H20V159.428z"/>
</g>
<g>
	<path fill="#888888" d="M8.083-40.805h12.441v5.133H2.167v-54.114h5.916V-40.805z"/>
	<path fill="#888888" d="M32.182-89.786h8.874c4.581,0,6.873,2.292,6.873,6.873v40.368c0,4.583-2.292,6.873-6.873,6.873h-8.874
		c-4.583,0-6.873-2.291-6.873-6.873v-40.368C25.309-87.494,27.599-89.786,32.182-89.786z M42.013-43.502v-38.454
		c0-1.159-0.174-1.899-0.522-2.218c-0.348-0.318-1.074-0.479-2.175-0.479h-5.394c-1.103,0-1.827,0.16-2.175,0.479
		c-0.348,0.319-0.522,1.059-0.522,2.218v38.454c0,1.161,0.174,1.9,0.522,2.219c0.348,0.319,1.072,0.479,2.175,0.479h5.394
		c1.101,0,1.827-0.159,2.175-0.479C41.839-41.602,42.013-42.341,42.013-43.502z"/>
	<path fill="#888888" d="M74.811-35.672l-2.262-13.746H61.587l-2.001,13.746h-6.003l8.439-54.114h9.483l9.309,54.114H74.811z
		 M62.282-54.551h9.483L66.719-85.61L62.282-54.551z"/>
	<path fill="#888888" d="M86.903-89.786h17.139c4.581,0,6.873,2.292,6.873,6.873v40.368c0,4.583-2.292,6.873-6.873,6.873H86.903
		V-89.786z M104.911-43.502v-38.454c0-1.159-0.174-1.899-0.521-2.218c-0.349-0.318-1.074-0.479-2.176-0.479h-9.309v43.848h9.309
		c1.102,0,1.827-0.159,2.176-0.479C104.738-41.602,104.911-42.341,104.911-43.502z"/>
	<path fill="#888888" d="M120.919-89.786h5.916v54.114h-5.916V-89.786z"/>
	<path fill="#888888" d="M155.023-89.786h5.48v54.114h-6.524l-11.224-41.934v41.934h-5.48v-54.114h6.96l10.788,40.455V-89.786z"/>
	<path fill="#888888" d="M191.823-74.648h-6.003v-7.308c0-1.159-0.174-1.899-0.522-2.218c-0.348-0.318-1.073-0.479-2.175-0.479
		h-4.785c-1.161,0-1.9,0.16-2.219,0.479c-0.319,0.319-0.479,1.059-0.479,2.218v38.541c0,1.103,0.159,1.827,0.479,2.175
		c0.318,0.348,1.058,0.522,2.219,0.522h4.785c1.102,0,1.827-0.174,2.175-0.522c0.349-0.348,0.522-1.073,0.522-2.175V-57.77h-4.351
		v-5.133h10.354v20.445c0,4.583-2.292,6.873-6.873,6.873h-8.439c-4.582,0-6.873-2.291-6.873-6.873v-40.455
		c0-4.581,2.291-6.873,6.873-6.873h8.439c4.581,0,6.873,2.292,6.873,6.873V-74.648z"/>
</g>
</svg>
