<?xml version="1.0" encoding="utf-8"?>
<!-- Generator: Adobe Illustrator 16.0.0, SVG Export Plug-In . SVG Version: 6.00 Build 0)  -->
<!DOCTYPE svg PUBLIC "-//W3C//DTD SVG 1.1//EN" "http://www.w3.org/Graphics/SVG/1.1/DTD/svg11.dtd">
<svg version="1.1" id="Layer_1" xmlns="http://www.w3.org/2000/svg" xmlns:xlink="http://www.w3.org/1999/xlink" x="0px" y="0px"
	 width="218.645px" height="188.725px" viewBox="0 0 218.645 188.725" enable-background="new 0 0 218.645 188.725"
	 xml:space="preserve">
<polygon fill="none" stroke="#FFFFFF" stroke-width="20" stroke-miterlimit="10" points="192.51,14.688 15.954,14.688 
	15.954,174.117 123.711,174.117 192.51,68.06 "/>
<polygon fill="#FFFFFF" points="66.818,128.483 118.252,43.976 50.079,43.976 50.079,59.636 90.306,59.636 38.875,144.142 
	105.779,144.142 115.01,128.483 "/>
<polygon fill="#FFFFFF" points="211.749,185.724 193.172,158.509 192.929,158.509 185.853,148.142 186.027,148.142 168.021,121.764 
	199.88,75.19 180.171,75.19 158.167,107.319 146.907,90.778 140.863,81.898 140.907,81.817 130.45,66.455 121.307,81.966 
	127.355,90.845 127.307,90.927 138.179,106.888 148.312,121.764 111.863,175.356 131.573,175.356 158.167,136.208 159.488,138.142 
	159.315,138.142 177.895,165.356 178.135,165.356 192.04,185.724 "/>
</svg>
